<svg width="35" height="35" viewBox="0 0 35 35" fill="none" xmlns="http://www.w3.org/2000/svg">
<path d="M34.9894 17.4894C34.9934 18.0021 34.8375 18.5033 34.5435 18.9234C34.2495 19.3434 33.8319 19.6614 33.3488 19.8332L23.4363 23.4379L19.8332 33.3488C19.6556 33.8272 19.3358 34.2399 18.9168 34.5312C18.4979 34.8226 17.9998 34.9788 17.4894 34.9788C16.9791 34.9788 16.481 34.8226 16.062 34.5312C15.643 34.2399 15.3233 33.8272 15.1457 33.3488L11.541 23.4269L1.63004 19.8332C1.15159 19.6556 0.738962 19.3358 0.447574 18.9168C0.156185 18.4979 0 17.9998 0 17.4894C0 16.9791 0.156185 16.481 0.447574 16.062C0.738962 15.643 1.15159 15.3233 1.63004 15.1457L11.5519 11.541L15.1457 1.63004C15.3233 1.15159 15.643 0.738962 16.062 0.447574C16.481 0.156185 16.9791 0 17.4894 0C17.9998 0 18.4979 0.156185 18.9168 0.447574C19.3358 0.738962 19.6556 1.15159 19.8332 1.63004L23.4379 11.5519L33.3488 15.1457C33.8319 15.3174 34.2495 15.6354 34.5435 16.0555C34.8375 16.4755 34.9934 16.9767 34.9894 17.4894Z" fill="#F8F9FF"/>
</svg>
